<svg width="914" height="337" viewBox="0 0 914 337" fill="none" xmlns="http://www.w3.org/2000/svg">
<path fill-rule="evenodd" clip-rule="evenodd" d="M885.957 1.76071C883.078 3.51571 872.585 14.0447 860.406 27.3957C848.186 40.7917 794.74 97.4867 777.922 114.892C763.014 130.322 759.531 135.451 747.704 159.396C742.542 169.846 737.123 179.674 735.661 181.235C728.091 189.322 720.035 190.026 689.003 185.317C675.15 183.215 665.927 184.199 646.018 189.902C615.262 198.713 598.959 199.963 586.749 194.445C579.793 191.302 577.006 187.893 575.94 181.225C575.173 176.432 575.428 176.203 583.654 174.284C596.528 171.28 610.776 162.095 614.503 154.395C616.96 149.32 616.534 146.618 612.901 144.237C606.812 140.247 593.797 145.958 580.543 158.435C575.846 162.857 564.578 173.197 555.503 181.412C546.428 189.628 538.672 196.811 538.268 197.373C537.786 198.044 537.528 198.005 537.518 197.259C537.501 195.958 544.676 180.406 554.073 161.375C557.61 154.213 560.503 147.816 560.503 147.16C560.503 145.514 556.735 143.64 555.232 144.539C554.556 144.943 553.393 146.12 552.647 147.156C551.326 148.988 551.253 148.984 549.86 146.995C547.747 143.979 541.719 142.656 535.834 143.918C528.238 145.547 521.314 150.136 512.3 159.515C495.226 177.279 492.863 179.51 487.066 183.334C482.726 186.197 480.036 187.27 477.066 187.323L473.003 187.396L472.7 183.23C472.366 178.648 476.263 169.917 484.83 156.052C487.326 152.012 489.125 148.075 488.828 147.302C488.118 145.451 485.072 145.505 483.503 147.396C481.767 149.487 480.373 149.251 477.678 146.41C471.218 139.599 455.613 142.649 442.673 153.252C439.892 155.531 434.553 158.954 430.81 160.858C422.147 165.264 406.163 171.889 405.587 171.313C405.345 171.071 406.147 169.096 407.368 166.923C410.106 162.05 411.196 154.059 409.543 150.971C408.225 148.509 402.909 145.896 399.217 145.896C389.748 145.896 378.285 153.088 362.253 169.088C355.791 175.537 350.503 180.338 350.503 179.756C350.503 179.174 352.023 176.155 353.88 173.047C361.529 160.246 374.605 134.662 374.301 133.087C374.088 131.978 373.01 131.396 371.167 131.396C368.112 131.396 368.236 131.216 356.732 152.396C347.149 170.04 292.862 277.058 288.504 286.896C286.189 292.121 283.217 298.813 281.899 301.767C278.999 308.268 278.888 310.502 281.432 311.167C283.009 311.58 283.768 310.642 285.587 306.034C292.899 287.507 322.09 234.218 341.811 203.396C359.329 176.018 385.23 152.184 397.986 151.704C405.443 151.424 406.308 156.801 400.325 166.232C396.195 172.742 395.514 173.266 387.003 176.48C370.061 182.879 363.438 187.298 360.03 194.48C358.488 197.731 358.481 198.214 359.951 200.456C363.138 205.321 371.254 202.959 383.803 193.514C387.791 190.512 392.971 185.783 395.314 183.005C398.358 179.395 400.701 177.65 403.53 176.889C406.721 176.03 415.841 172.512 431.268 166.189C431.964 165.904 430.951 168.971 429.018 173.005C424.597 182.231 424.39 186.959 428.253 190.544C430.673 192.79 431.678 193.048 436.633 192.691C443.377 192.206 450.085 188.489 461.079 179.146C468.286 173.022 470.378 171.671 468.864 174.121C468.448 174.794 467.775 177.796 467.368 180.792C465.361 195.585 476.538 197.234 493.409 184.633C498.229 181.033 498.75 180.843 498.219 182.875C497.361 186.153 500.177 192.426 503.104 193.76C504.475 194.385 506.748 194.896 508.154 194.896C512.639 194.896 524.077 187.983 532.427 180.225C536.869 176.099 540.503 173.002 540.503 173.344C540.503 174.357 531.413 197.096 529.488 200.898C527.749 204.333 524.246 207.442 490.503 235.502C464.45 257.167 445.618 274.991 435.504 287.558C420.269 306.489 414.102 327.854 421.93 334.587C427.512 339.388 436.9 336.976 449.525 327.499C474.148 309.014 498.788 275.538 524.31 225.896C528.976 216.821 533.516 208.469 534.398 207.337C535.281 206.204 541.246 200.721 547.655 195.151C554.063 189.581 561.488 182.989 564.155 180.502L569.003 175.981L570.079 181.188C571.518 188.148 573.708 192.095 578.176 195.778C583.419 200.1 589.559 201.995 600.376 202.631C612.701 203.355 623.022 201.743 644.503 195.738C666.271 189.653 676.337 188.449 688.3 190.499C722.241 196.313 728.625 195.132 762.242 176.825C789.151 162.171 796.071 156.707 818.566 132.35C911.822 31.3747 913.503 29.4467 913.503 23.4797C913.503 16.7847 905.405 5.92672 897.344 1.81472C892.632 -0.589279 889.832 -0.602295 885.957 1.76071ZM888.626 6.24673C886.637 8.64373 896.07 19.5517 903.416 23.3507C905.886 24.6277 906.469 24.6407 907.465 23.4407C910.487 19.8007 897.395 4.89572 891.175 4.89572C890.39 4.89572 889.243 5.50373 888.626 6.24673ZM882.703 11.0957C882.043 11.7557 881.503 13.0217 881.503 13.9087C881.503 15.7347 892.031 26.5017 897.849 30.6257C901.556 33.2527 901.746 33.2837 903.066 31.4787C904.309 29.7797 904.044 29.3547 900.22 26.9117C894.594 23.3177 890.441 19.2947 887.043 14.1457C885.5 11.8087 884.162 9.89571 884.07 9.89571C883.978 9.89571 883.363 10.4357 882.703 11.0957ZM875.339 19.2437C864.096 30.8367 847.407 48.5217 828.014 69.3957C820.349 77.6457 807.716 91.1457 799.942 99.3957C775.838 124.973 774.976 126.021 777.084 127.201C778.627 128.065 780.056 126.941 786.454 119.829C790.606 115.214 801.205 103.778 810.008 94.4167C818.81 85.0547 832.721 70.1957 840.921 61.3957C872.046 27.9937 875.878 24.5157 877.196 28.4737C877.394 29.0667 872.232 35.1417 865.727 41.9737C859.221 48.8057 851.897 56.6367 849.451 59.3767C847.005 62.1157 835.553 74.4427 824.003 86.7697C812.453 99.0967 799.385 113.142 794.963 117.981C790.54 122.82 785.703 127.738 784.213 128.91C780.933 131.489 780.783 133.537 783.687 136.056C788.481 140.214 790.108 139.734 798.186 131.778C812.9 117.286 891.994 33.6367 891.503 33.0857C891.228 32.7767 887.779 29.2257 883.839 25.1957C877.798 19.0147 876.466 18.0827 875.339 19.2437ZM199.597 26.0657C187.038 29.6367 168.843 48.4827 147.629 79.8957C130.039 105.941 117.323 128.893 104.135 158.396C98.5414 170.911 98.0544 171.628 91.0814 177.61C67.6014 197.757 23.3634 231.744 6.0344 242.951C2.4634 245.26 -0.243603 247.496 0.017397 247.919C1.0804 249.639 7.67238 246.836 16.5754 240.876C29.0884 232.5 61.9524 207.904 77.3254 195.41C84.1034 189.902 90.7334 184.526 92.0594 183.463C93.3854 182.4 94.6654 181.725 94.9044 181.964C95.1424 182.202 94.8344 185.894 94.2184 190.167C93.3754 196.018 93.3904 199.325 94.2774 203.556C95.8404 211.004 97.7514 213.676 103.258 216.112C113.864 220.803 128.23 215.108 160.938 193.242C171.273 186.332 174.412 184.891 171.511 188.386C170.809 189.233 170.014 192.993 169.746 196.742C169.28 203.254 169.381 203.655 172.016 205.727C178.81 211.072 187.021 207.446 208.085 189.799L217.168 182.191L215.746 186.293C214.965 188.55 214.076 193.64 213.773 197.605C213.223 204.779 213.237 204.83 216.659 208.252C226.192 217.785 241.374 213.852 263.503 196.114C273.14 188.39 281.503 179.91 281.503 177.863C281.503 174.168 278.105 175.839 270.525 183.264C255.084 198.39 241.054 206.939 230.411 207.709C223.539 208.206 220.878 206.915 219.656 202.489C217.904 196.142 220.672 186.794 229.672 168.664C232.329 163.312 234.503 158.276 234.503 157.473C234.503 154.883 232.385 154.607 229.408 156.808L226.503 158.956L223.567 156.785C219.542 153.809 212.062 153.218 205.6 155.364C199.933 157.246 188.245 165.247 179.187 173.444C171.617 180.295 151.137 194.557 139.263 201.248C126.586 208.391 117.935 211.983 112.003 212.569C107.548 213.009 106.624 212.741 103.529 210.111C100.216 207.295 100.037 206.806 99.6704 199.533C99.4184 194.535 99.8804 189.406 101.01 184.651L102.735 177.396L120.063 160.396C137.789 143.005 145.354 134.871 155.355 122.45C181.303 90.2257 209.503 42.5607 209.503 30.9277C209.503 26.6767 205.081 24.5057 199.597 26.0657ZM197.692 32.3997C191.696 35.1777 179.35 47.0297 169.05 59.8957C161.477 69.3537 144.781 94.2967 134.241 111.896C126.336 125.094 107.279 163.015 108.134 163.842C109.338 165.007 142.539 129.584 153.598 115.336C173.859 89.2297 191.286 62.1057 199.885 43.2897C206.218 29.4317 206.037 28.5337 197.692 32.3997ZM875.003 58.6687C842.118 93.9827 805.379 132.363 798.809 138.265C796.441 140.393 794.503 142.981 794.503 144.015C794.503 148.29 798.587 145.492 809.607 133.666C822.078 120.283 833.374 108.277 846.552 94.3987C851.254 89.4467 860.686 79.3207 867.511 71.8957C874.336 64.4707 882.023 56.1457 884.593 53.3957C891.942 45.5317 897.503 38.8537 897.503 37.8937C897.503 35.0397 893.962 38.3097 875.003 58.6687ZM769.003 133.631C763.061 141.673 754.971 157.413 754.353 162.136C754.036 164.556 757.995 171.896 759.618 171.896C763.042 171.896 784.948 158.231 789.945 152.979L792.886 149.886L790.856 147.167C789.74 145.672 786.569 143.536 783.81 142.422C777.368 139.82 775.68 138.359 774.686 134.522C773.651 130.528 771.54 130.197 769.003 133.631ZM457.643 150.646C451.721 153.816 443.192 161.745 437.281 169.574C433.283 174.87 430.071 183.606 431.119 186.337C432.54 190.04 439.344 188.617 448.503 182.7C456.908 177.27 473.33 162.155 475.548 157.807L477.524 153.934L474.365 150.915C470.176 146.911 464.781 146.824 457.643 150.646ZM533.003 150.856C522.214 156.273 505.388 174.662 503.884 182.68C502.832 188.287 505.519 190.862 510.99 189.489C517.029 187.973 543.423 164.819 547.003 157.897C548.615 154.779 548.603 154.506 546.748 152.012C544.185 148.565 538.515 148.088 533.003 150.856ZM601.01 150.469C595.192 153.503 578.503 167.966 578.503 169.974C578.503 171.254 585.621 169.006 593.052 165.379C605.262 159.419 614.021 148.886 606.753 148.902C605.24 148.906 602.656 149.611 601.01 150.469ZM205.921 161.336C194.734 166.997 179.194 182.851 176.024 191.837C172.35 202.249 175.708 205.383 185.286 200.483C197.336 194.319 222.503 170.582 222.503 165.381C222.503 159.482 213.785 157.356 205.921 161.336ZM747.263 174.934C745.302 177.769 744.93 178.896 745.957 178.896C748.525 178.896 752.693 174.554 751.959 172.643C751.004 170.152 750.349 170.471 747.263 174.934ZM382.121 183.423C375.178 186.306 368.324 191.299 366.03 195.146C364.485 197.736 364.495 197.895 366.196 197.887C370.204 197.866 385.133 187.323 387.55 182.808C388.113 181.756 388.445 180.915 388.288 180.938C388.131 180.962 385.356 182.08 382.121 183.423ZM518.94 218.004C517.325 219.714 508.128 227.689 498.503 235.727C448.751 277.276 428.379 300.403 424.328 319.933C420.298 339.36 435.469 335.368 460.013 310.543C476.597 293.77 490.674 274.444 506.011 247.396C514.725 232.029 523.241 214.896 522.165 214.896C522.007 214.896 520.555 216.295 518.94 218.004Z" fill="black" fill-opacity="0.975"/>
</svg>
